<?xml version="1.0" encoding="utf-8"?>
<!-- Generator: $$$/GeneralStr/196=Adobe Illustrator 27.6.0, SVG Export Plug-In . SVG Version: 6.00 Build 0)  -->
<svg version="1.1" id="a" xmlns="http://www.w3.org/2000/svg" xmlns:xlink="http://www.w3.org/1999/xlink" x="0px" y="0px"
	 viewBox="0 0 716 198.8" style="enable-background:new 0 0 716 198.8;" xml:space="preserve">
<g>
	<polygon points="70.4,93.5 111.9,21.6 153.4,93.5 	"/>
	<path d="M111.9,22.6L152.5,93H71.2L111.9,22.6 M111.9,20.6L69.5,94h84.7L111.9,20.6L111.9,20.6z"/>
</g>
<g>
	<polygon points="27.8,167.2 69.3,95.3 110.9,167.2 	"/>
	<path d="M69.3,96.3l40.6,70.4H28.7L69.3,96.3 M69.3,94.3L27,167.7h84.7L69.3,94.3L69.3,94.3z"/>
</g>
<g>
	<polygon points="112.9,167.2 154.4,95.3 195.9,167.2 	"/>
	<path d="M154.4,96.3l40.6,70.4h-81.3L154.4,96.3 M154.4,94.3L112,167.7h84.7L154.4,94.3L154.4,94.3z"/>
</g>
<g>
	<g>
		<path d="M207.9,99.9h112.9v6.1H207.9V99.9z M214.5,46h99.2v6.1h-99.2V46z M224,61.1l5.5-1.7c1.9,3.2,3.7,6.7,5.5,10.4
			c1.8,3.7,3.4,7.3,4.8,10.9c1.4,3.5,2.4,6.5,3,9.1l-5.7,2.3c-0.7-2.7-1.7-5.8-3-9.3c-1.4-3.5-2.9-7.2-4.6-11
			C227.6,67.9,225.9,64.4,224,61.1z M260.8,48.1h6.2v104.3h-6.2V48.1z M298.6,58.7l6.5,2c-1.6,3.6-3.4,7.3-5.3,11.2
			c-1.9,3.9-3.8,7.7-5.8,11.3c-1.9,3.6-3.9,6.9-5.7,9.7l-5.2-1.9c1.8-2.9,3.6-6.2,5.6-10c1.9-3.8,3.8-7.6,5.5-11.6
			C295.9,65.5,297.4,61.9,298.6,58.7z"/>
		<path d="M345.9,45h6.1v35.4c0,5-0.1,10.5-0.4,16.4c-0.3,6-0.9,12.1-1.9,18.3c-1,6.2-2.3,12.3-4.1,18.3c-1.8,6-4.2,11.5-7.2,16.6
			c-0.3-0.3-0.8-0.7-1.5-1.1c-0.6-0.4-1.3-0.8-1.9-1.3c-0.6-0.4-1.2-0.7-1.7-0.9c2.9-5,5.2-10.3,6.9-15.9c1.7-5.6,3-11.4,3.8-17.3
			c0.8-5.9,1.4-11.6,1.7-17.3c0.3-5.6,0.4-10.9,0.4-15.8V45z M349.4,45h97.5v5.8h-97.5V45z M375.9,118.1l5.8,1.9
			c-2.3,3-4.8,6.2-7.4,9.4c-2.7,3.2-5.3,6.3-8,9.3c-2.7,3-5.2,5.6-7.6,7.9c-0.4-0.3-1-0.7-1.7-1.2c-0.7-0.5-1.3-0.9-2-1.3
			c-0.6-0.4-1.2-0.8-1.8-1c3.9-3.4,7.9-7.3,11.9-11.8C369.3,126.7,372.9,122.3,375.9,118.1z M365.2,66.4h70.9v43.8h-70.9V66.4z
			 M371.3,71.6v14h58.5v-14H371.3z M371.3,90.7v14.2h58.5V90.7H371.3z M397.4,105.7h6v38.9c0,1.9-0.3,3.4-0.8,4.4
			c-0.6,1-1.6,1.8-3.2,2.4c-1.6,0.4-4,0.7-7.2,0.7c-3.2,0-7.3,0.1-12.5,0.1c-0.1-0.8-0.4-1.7-0.8-2.7c-0.5-1-0.9-1.9-1.3-2.8
			c4.3,0.1,8,0.1,11.2,0.2c3.1,0,5.2,0,6.2-0.1c1-0.1,1.7-0.3,2-0.6c0.3-0.3,0.5-0.9,0.5-1.7V105.7z M397,53l6.7,1.3
			c-1.3,2.7-2.6,5.5-3.9,8.4c-1.4,2.9-2.7,5.4-3.9,7.5l-5.5-1.3c1.2-2.3,2.4-4.9,3.7-7.9C395.3,57.9,396.3,55.2,397,53z
			 M416.9,121.2l4.8-2.7c2.7,2.6,5.6,5.5,8.6,8.6c3,3.1,5.9,6.1,8.6,9.1c2.7,3,5,5.5,6.7,7.7l-5.1,3.3c-1.7-2.2-3.9-4.8-6.5-7.8
			c-2.7-3-5.5-6.1-8.5-9.3C422.5,126.8,419.6,123.9,416.9,121.2z"/>
		<path d="M459.8,126.4c4.5-1.1,9.7-2.5,15.7-4.2c6-1.7,12.1-3.5,18.5-5.3l0.6,5.2c-5.8,1.7-11.6,3.4-17.3,5.1
			c-5.7,1.7-11,3.3-15.8,4.8L459.8,126.4z M463.5,40.1h33.7v5.7h-33.7V40.1z M469,59.4l5.6,0.5c-0.3,4.5-0.8,9.4-1.3,14.7
			c-0.5,5.3-1,10.4-1.5,15.3c-0.5,4.9-1,9.1-1.5,12.6h-5.6c0.5-3.6,1-8,1.6-13c0.5-5,1.1-10.2,1.5-15.5
			C468.2,68.7,468.7,63.8,469,59.4z M466.8,97.2h34.4v5.3h-34.4V97.2z M500.5,97h5.7c-0.1,1.6-0.2,2.7-0.3,3.2
			c-0.8,11-1.5,19.9-2.3,26.5c-0.8,6.7-1.7,11.8-2.6,15.3c-0.9,3.5-2.1,6-3.4,7.4c-0.9,0.9-1.9,1.6-3,2c-1.1,0.4-2.5,0.7-4.3,0.8
			c-1.6,0.2-3.8,0.2-6.5,0.1c-2.8-0.1-5.7-0.2-8.8-0.4c-0.1-0.8-0.3-1.8-0.5-2.8s-0.6-1.9-1.1-2.7c3.3,0.3,6.3,0.5,9.1,0.6
			c2.8,0,4.8,0.1,6,0.1c1,0,1.9-0.1,2.7-0.3c0.8-0.2,1.4-0.6,1.9-1.1c1.1-1,2.1-3.2,2.9-6.5c0.8-3.3,1.7-8.3,2.5-15
			c0.8-6.6,1.5-15.3,2.2-26.1V97z M495.4,40.1h5.7c-0.4,4.6-0.9,9.5-1.3,14.9c-0.5,5.3-0.9,10.6-1.4,15.9c-0.5,5.3-1,10.3-1.5,15.1
			c-0.6,4.8-1,8.9-1.5,12.4l-6,0.8c0.6-3.7,1.2-8,1.7-12.9c0.5-4.9,1.1-10,1.7-15.4c0.6-5.4,1.1-10.7,1.5-16.1
			C494.8,49.5,495.2,44.6,495.4,40.1z M565.4,44.8h1.1l1.1-0.4l3.9,2.3c-3,6.1-6.8,11.7-11.4,16.7c-4.7,5-9.9,9.5-15.6,13.5
			c-5.8,4-11.7,7.5-18,10.4c-6.2,3-12.4,5.4-18.5,7.2c-0.3-0.8-0.7-1.7-1.5-2.7c-0.7-1-1.4-1.8-2-2.3c5.9-1.7,11.9-3.9,18-6.6
			c6.1-2.7,11.8-5.9,17.3-9.6c5.5-3.7,10.5-7.8,14.9-12.4c4.4-4.6,7.9-9.6,10.5-15V44.8z M506.8,124.5h69.2v5.7h-69.2V124.5z
			 M509.1,44.8H567v5.7h-57.9V44.8z M512,102.9H570v5.8H512V102.9z M519.7,47.1c3.5,7,8.1,13.4,13.8,19c5.7,5.7,12.3,10.5,19.9,14.5
			c7.5,4,15.7,7,24.4,9c-0.5,0.4-1,0.9-1.5,1.5c-0.5,0.6-1,1.2-1.4,1.8c-0.4,0.6-0.8,1.3-1,1.8c-8.7-2.5-16.9-5.8-24.5-10.1
			c-7.6-4.3-14.4-9.4-20.3-15.5c-5.9-6.1-10.6-12.8-14.3-20.4L519.7,47.1z M538.3,90.9h5.8v61.6h-5.8V90.9z"/>
		<path d="M588.2,132.8c4.1-0.9,8.8-2.1,14.2-3.4c5.4-1.3,11.1-2.8,17.1-4.3c6-1.6,12.1-3.1,18.2-4.6l0.6,5.7
			c-8.6,2.3-17.1,4.6-25.7,6.8c-8.6,2.2-16.1,4.3-22.7,6L588.2,132.8z M590,62h48.3v5.7H590V62z M595.5,75.3l5.2-1
			c1.1,5.1,2.1,10.5,3.1,16.1c1,5.7,1.8,11.2,2.5,16.6c0.7,5.4,1.1,10.3,1.4,14.6l-5.5,1c-0.2-4.4-0.6-9.3-1.3-14.7
			c-0.7-5.4-1.5-11-2.4-16.7C597.6,85.5,596.6,80.2,595.5,75.3z M605.1,39.6l5.3-1.8c1.9,3,3.7,6.2,5.5,9.8c1.8,3.6,3.1,6.7,3.9,9.4
			l-5.6,2.2c-0.8-2.7-2.1-5.9-3.8-9.6C608.8,45.9,607,42.6,605.1,39.6z M625.6,72.4l5.8,1.3c-0.6,4.3-1.3,8.9-2.2,13.7
			c-0.8,4.8-1.7,9.7-2.6,14.6c-0.9,4.9-1.8,9.6-2.7,14.1c-0.9,4.5-1.9,8.5-2.8,11.9l-4.7-1.4c0.8-3.4,1.7-7.3,2.5-11.9
			c0.8-4.5,1.7-9.3,2.5-14.2c0.8-5,1.6-9.9,2.3-14.7C624.5,80.9,625.1,76.5,625.6,72.4z M641.7,98.3h55.5v53.5H691v-47.6h-43.2v48.1
			h-6.1V98.3z M644.8,140.3h49.5v5.8h-49.5V140.3z M663,37h6.1v63.9H663V37z M667,65.1h36.1V71H667V65.1z"/>
	</g>
</g>
</svg>
